<svg xmlns="http://www.w3.org/2000/svg" viewBox="0 0 32 32" fill="none">
  <defs>
    <linearGradient id="topFace" x1="0%" y1="0%" x2="100%" y2="100%">
      <stop offset="0%" stop-color="#7dd3fc" />
      <stop offset="100%" stop-color="#38bdf8" />
    </linearGradient>
    <linearGradient id="leftFace" x1="0%" y1="0%" x2="100%" y2="100%">
      <stop offset="0%" stop-color="#0284c7" />
      <stop offset="100%" stop-color="#0369a1" />
    </linearGradient>
    <linearGradient id="rightFace" x1="0%" y1="0%" x2="100%" y2="100%">
      <stop offset="0%" stop-color="#0ea5e9" />
      <stop offset="100%" stop-color="#0284c7" />
    </linearGradient>
  </defs>

  <!-- 3D Isometric Enclosure facets -->
  <polygon points="16,3 28,10 16,17 4,10" fill="url(#topFace)" />
  <polygon points="4,10 16,17 16,29 4,22" fill="url(#leftFace)" />
  <polygon points="16,17 28,10 28,22 16,29" fill="url(#rightFace)" />

  <!-- Inner Faraday Cage parametric grid lines -->
  <line x1="10" y1="6.5" x2="22" y2="13.5" stroke="rgba(255,255,255,0.45)" stroke-width="1" />
  <line x1="22" y1="6.5" x2="10" y2="13.5" stroke="rgba(255,255,255,0.45)" stroke-width="1" />
  <line x1="10" y1="13.5" x2="10" y2="25.5" stroke="rgba(255,255,255,0.3)" stroke-width="1" />
  <line x1="22" y1="13.5" x2="22" y2="25.5" stroke="rgba(255,255,255,0.3)" stroke-width="1" />

  <!-- Central Electromagnetic Flux Spark Core -->
  <polygon points="17.5,7.5 11.5,16 15,16 14,24.5 20.5,15 17,15" fill="#ffffff" stroke="#0284c7" stroke-width="0.8" stroke-linejoin="round" />
</svg>